<svg width="43" height="42" viewBox="0 0 43 42" fill="none" xmlns="http://www.w3.org/2000/svg">
<path d="M21.5 41.7627C18.6836 41.7627 16.0312 41.2227 13.543 40.1426C11.0684 39.0762 8.88086 37.5996 6.98046 35.7129C5.09375 33.8125 3.61035 31.625 2.53027 29.1504C1.46386 26.6621 0.93066 24.0098 0.93066 21.1934C0.93066 18.377 1.46386 15.7314 2.53027 13.2568C3.61035 10.7686 5.09375 8.58105 6.98046 6.69434C8.86718 4.79395 11.0478 3.31055 13.5225 2.24414C16.0107 1.16406 18.6631 0.624023 21.4795 0.624023C24.2959 0.624023 26.9482 1.16406 29.4365 2.24414C31.9248 3.31055 34.1123 4.79395 35.999 6.69434C37.8857 8.58105 39.3691 10.7686 40.4492 13.2568C41.5293 15.7314 42.0693 18.377 42.0693 21.1934C42.0693 24.0098 41.5293 26.6621 40.4492 29.1504C39.3691 31.625 37.8857 33.8125 35.999 35.7129C34.1123 37.5996 31.9248 39.0762 29.4365 40.1426C26.9619 41.2227 24.3164 41.7627 21.5 41.7627ZM21.5 39.1172C23.9746 39.1172 26.292 38.6523 28.4521 37.7227C30.626 36.793 32.5332 35.5078 34.1738 33.8672C35.8281 32.2266 37.1133 30.3262 38.0293 28.166C38.959 25.9922 39.4238 23.668 39.4238 21.1934C39.4238 18.7188 38.959 16.4014 38.0293 14.2412C37.0996 12.0674 35.8144 10.1602 34.1738 8.51953C32.5332 6.86523 30.626 5.58008 28.4521 4.66406C26.292 3.73438 23.9678 3.26953 21.4795 3.26953C19.0049 3.26953 16.6807 3.73438 14.5068 4.66406C12.3467 5.58008 10.4463 6.86523 8.80566 8.51953C7.17871 10.1602 5.90039 12.0674 4.9707 14.2412C4.05468 16.4014 3.59668 18.7188 3.59668 21.1934C3.59668 23.668 4.05468 25.9922 4.9707 28.166C5.90039 30.3262 7.18554 32.2266 8.82617 33.8672C10.4668 35.5078 12.3672 36.793 14.5273 37.7227C16.6875 38.6523 19.0117 39.1172 21.5 39.1172ZM35.4248 34.5439C34.1807 35.7881 32.7656 36.8477 31.1797 37.7227C29.5937 38.6113 27.96 39.2881 26.2783 39.7529C24.6103 40.2178 23.0176 40.4502 21.5 40.4502C20.0098 40.4502 18.417 40.2109 16.7217 39.7324C15.0264 39.2676 13.3789 38.5908 11.7793 37.7021C10.1797 36.8271 8.77832 35.7744 7.57519 34.5439L7.61621 34.3389C7.99902 33.3682 8.81933 32.3975 10.0771 31.4268C11.3486 30.4561 12.9551 29.6494 14.8965 29.0068C16.8379 28.3643 19.0391 28.043 21.5 28.043C23.9609 28.043 26.1689 28.3643 28.124 29.0068C30.0791 29.6494 31.6787 30.4629 32.9228 31.4473C34.1807 32.418 35.001 33.3955 35.3838 34.3799L35.4248 34.5439ZM21.5 24.5361C20.1875 24.5225 19.0049 24.1807 17.9521 23.5107C16.8994 22.8271 16.0654 21.9043 15.4502 20.7422C14.835 19.5801 14.5205 18.2676 14.5068 16.8047C14.4932 15.4375 14.8008 14.1797 15.4297 13.0312C16.0586 11.8828 16.8994 10.9668 17.9521 10.2832C19.0186 9.58594 20.2012 9.2373 21.5 9.2373C22.7988 9.2373 23.9746 9.58594 25.0273 10.2832C26.0801 10.9668 26.9209 11.8828 27.5498 13.0312C28.1787 14.1797 28.4932 15.4375 28.4932 16.8047C28.4932 18.2676 28.1855 19.5869 27.5703 20.7627C26.9551 21.9248 26.1143 22.8477 25.0478 23.5312C23.9951 24.2012 22.8125 24.5361 21.5 24.5361Z" fill="black"/>
</svg>
