<svg width="35" height="31" viewBox="0 0 35 31" fill="none" xmlns="http://www.w3.org/2000/svg">
<path d="M13.2666 29.2656V18.6016C13.2666 18.2695 13.3691 18.001 13.5742 17.7959C13.7793 17.5908 14.0527 17.4883 14.3945 17.4883H20.6055C20.9375 17.4883 21.2061 17.5908 21.4111 17.7959C21.6162 18.001 21.7188 18.2695 21.7188 18.6016V29.2656H13.2666ZM7.53906 30.7744C6.49414 30.7744 5.67871 30.4912 5.09277 29.9248C4.5166 29.3584 4.22852 28.5625 4.22852 27.5371V11.3506L6.58691 9.75391V26.9365C6.58691 27.415 6.70898 27.7812 6.95312 28.0352C7.20703 28.2891 7.56836 28.416 8.03711 28.416H26.8604C27.3291 28.416 27.6855 28.2891 27.9297 28.0352C28.1738 27.7812 28.2959 27.415 28.2959 26.9365V9.73926L30.6543 11.3506V27.5371C30.6543 28.5625 30.3662 29.3584 29.79 29.9248C29.2139 30.4912 28.4033 30.7744 27.3584 30.7744H7.53906ZM0.00976562 14.4707C0.00976562 14.0898 0.166016 13.7725 0.478516 13.5186L15.7422 0.701172C16.2891 0.242188 16.875 0.0126953 17.5 0.0126953C18.1348 0.0126953 18.7256 0.242188 19.2725 0.701172L34.5215 13.5186C34.8242 13.7725 34.9756 14.1045 34.9756 14.5146C34.9756 14.8662 34.8535 15.1445 34.6094 15.3496C34.3652 15.5449 34.0723 15.6426 33.7305 15.6426C33.5254 15.6426 33.335 15.5938 33.1592 15.4961C32.9932 15.3984 32.8369 15.291 32.6904 15.1738L18.0273 2.86914C17.8613 2.72266 17.6855 2.64941 17.5 2.64941C17.3242 2.64941 17.1533 2.72266 16.9873 2.86914L2.32422 15.1738C2.16797 15.291 2.00195 15.3984 1.82617 15.4961C1.66016 15.5938 1.47461 15.6426 1.26953 15.6426C0.878906 15.6426 0.571289 15.5254 0.34668 15.291C0.12207 15.0469 0.00976562 14.7734 0.00976562 14.4707ZM26.9775 7.86426V4.20215C26.9775 3.87988 27.0752 3.62598 27.2705 3.44043C27.4658 3.24512 27.7197 3.14746 28.0322 3.14746H29.5996C29.9219 3.14746 30.1758 3.24512 30.3613 3.44043C30.5566 3.62598 30.6543 3.87988 30.6543 4.20215V10.9697L26.9775 7.86426Z" fill="#87CEFA"/>
</svg>
