<svg width="33" height="33" viewBox="0 0 33 33" fill="none" xmlns="http://www.w3.org/2000/svg">
<circle cx="16.5" cy="16.5" r="16.5" fill="#FBDF5A"/>
<g clip-path="url(#clip0_436_4775)">
<path d="M10.5703 22.3008V14.1797C10.5703 12.7438 11.1407 11.3667 12.1561 10.3514C13.1714 9.33603 14.5485 8.76563 15.9844 8.76562C17.4203 8.76562 18.7974 9.33603 19.8127 10.3514C20.828 11.3667 21.3984 12.7438 21.3984 14.1797V22.3008M10.5703 22.3008H21.3984M10.5703 22.3008H8.76562M21.3984 22.3008H23.2031M15.082 25.0078H16.8867" stroke="black" stroke-width="2.5" stroke-linecap="round" stroke-linejoin="round"/>
<path d="M15.9844 8.76562C16.4827 8.76562 16.8867 8.36163 16.8867 7.86328C16.8867 7.36493 16.4827 6.96094 15.9844 6.96094C15.486 6.96094 15.082 7.36493 15.082 7.86328C15.082 8.36163 15.486 8.76562 15.9844 8.76562Z" stroke="black" stroke-width="2.5"/>
</g>
<defs>
<clipPath id="clip0_436_4775">
<rect width="21.6562" height="21.6562" fill="white" transform="translate(5.15625 5.15625)"/>
</clipPath>
</defs>
</svg>
