<svg width="31" height="28" viewBox="0 0 31 28" fill="none" xmlns="http://www.w3.org/2000/svg">
<path d="M5.49512 27.9297C3.96191 27.9297 2.80957 27.5488 2.03809 26.7871C1.27637 26.0352 0.895508 24.9023 0.895508 23.3887V5.50293C0.895508 3.98926 1.27637 2.85645 2.03809 2.10449C2.80957 1.34277 3.96191 0.961914 5.49512 0.961914H25.5049C27.0381 0.961914 28.1855 1.34277 28.9473 2.10449C29.709 2.85645 30.0898 3.98926 30.0898 5.50293V23.3887C30.0898 24.9023 29.709 26.0352 28.9473 26.7871C28.1855 27.5488 27.0381 27.9297 25.5049 27.9297H5.49512ZM5.27539 25.5713H25.6953C26.3496 25.5713 26.8525 25.3955 27.2041 25.0439C27.5557 24.7021 27.7314 24.1943 27.7314 23.5205V9.70703C27.7314 9.0332 27.5557 8.52539 27.2041 8.18359C26.8525 7.83203 26.3496 7.65625 25.6953 7.65625H5.27539C4.63086 7.65625 4.13281 7.83203 3.78125 8.18359C3.42969 8.52539 3.25391 9.0332 3.25391 9.70703V23.5205C3.25391 24.1943 3.42969 24.7021 3.78125 25.0439C4.13281 25.3955 4.63086 25.5713 5.27539 25.5713ZM12.6436 12.9297C12.3896 12.9297 12.209 12.8809 12.1016 12.7832C12.0039 12.6855 11.9551 12.5098 11.9551 12.2559V11.3916C11.9551 11.1377 12.0039 10.9668 12.1016 10.8789C12.209 10.7812 12.3896 10.7324 12.6436 10.7324H13.5078C13.7617 10.7324 13.9375 10.7812 14.0352 10.8789C14.1426 10.9668 14.1963 11.1377 14.1963 11.3916V12.2559C14.1963 12.5098 14.1426 12.6855 14.0352 12.7832C13.9375 12.8809 13.7617 12.9297 13.5078 12.9297H12.6436ZM17.5068 12.9297C17.2529 12.9297 17.0771 12.8809 16.9795 12.7832C16.8818 12.6855 16.833 12.5098 16.833 12.2559V11.3916C16.833 11.1377 16.8818 10.9668 16.9795 10.8789C17.0771 10.7812 17.2529 10.7324 17.5068 10.7324H18.3711C18.6348 10.7324 18.8154 10.7812 18.9131 10.8789C19.0107 10.9668 19.0596 11.1377 19.0596 11.3916V12.2559C19.0596 12.5098 19.0107 12.6855 18.9131 12.7832C18.8154 12.8809 18.6348 12.9297 18.3711 12.9297H17.5068ZM22.3848 12.9297C22.1211 12.9297 21.9404 12.8809 21.8428 12.7832C21.7451 12.6855 21.6963 12.5098 21.6963 12.2559V11.3916C21.6963 11.1377 21.7451 10.9668 21.8428 10.8789C21.9404 10.7812 22.1211 10.7324 22.3848 10.7324H23.2344C23.498 10.7324 23.6787 10.7812 23.7764 10.8789C23.874 10.9668 23.9229 11.1377 23.9229 11.3916V12.2559C23.9229 12.5098 23.874 12.6855 23.7764 12.7832C23.6787 12.8809 23.498 12.9297 23.2344 12.9297H22.3848ZM7.78027 17.7197C7.5166 17.7197 7.33594 17.6709 7.23828 17.5732C7.14062 17.4756 7.0918 17.2998 7.0918 17.0459V16.1963C7.0918 15.9326 7.14062 15.7568 7.23828 15.6689C7.33594 15.5713 7.5166 15.5225 7.78027 15.5225H8.64453C8.89844 15.5225 9.07422 15.5713 9.17188 15.6689C9.26953 15.7568 9.31836 15.9326 9.31836 16.1963V17.0459C9.31836 17.2998 9.26953 17.4756 9.17188 17.5732C9.07422 17.6709 8.89844 17.7197 8.64453 17.7197H7.78027ZM12.6436 17.7197C12.3896 17.7197 12.209 17.6709 12.1016 17.5732C12.0039 17.4756 11.9551 17.2998 11.9551 17.0459V16.1963C11.9551 15.9326 12.0039 15.7568 12.1016 15.6689C12.209 15.5713 12.3896 15.5225 12.6436 15.5225H13.5078C13.7617 15.5225 13.9375 15.5713 14.0352 15.6689C14.1426 15.7568 14.1963 15.9326 14.1963 16.1963V17.0459C14.1963 17.2998 14.1426 17.4756 14.0352 17.5732C13.9375 17.6709 13.7617 17.7197 13.5078 17.7197H12.6436ZM17.5068 17.7197C17.2529 17.7197 17.0771 17.6709 16.9795 17.5732C16.8818 17.4756 16.833 17.2998 16.833 17.0459V16.1963C16.833 15.9326 16.8818 15.7568 16.9795 15.6689C17.0771 15.5713 17.2529 15.5225 17.5068 15.5225H18.3711C18.6348 15.5225 18.8154 15.5713 18.9131 15.6689C19.0107 15.7568 19.0596 15.9326 19.0596 16.1963V17.0459C19.0596 17.2998 19.0107 17.4756 18.9131 17.5732C18.8154 17.6709 18.6348 17.7197 18.3711 17.7197H17.5068ZM22.3848 17.7197C22.1211 17.7197 21.9404 17.6709 21.8428 17.5732C21.7451 17.4756 21.6963 17.2998 21.6963 17.0459V16.1963C21.6963 15.9326 21.7451 15.7568 21.8428 15.6689C21.9404 15.5713 22.1211 15.5225 22.3848 15.5225H23.2344C23.498 15.5225 23.6787 15.5713 23.7764 15.6689C23.874 15.7568 23.9229 15.9326 23.9229 16.1963V17.0459C23.9229 17.2998 23.874 17.4756 23.7764 17.5732C23.6787 17.6709 23.498 17.7197 23.2344 17.7197H22.3848ZM7.78027 22.5098C7.5166 22.5098 7.33594 22.4658 7.23828 22.3779C7.14062 22.2803 7.0918 22.0996 7.0918 21.8359V20.9863C7.0918 20.7227 7.14062 20.5469 7.23828 20.459C7.33594 20.3613 7.5166 20.3125 7.78027 20.3125H8.64453C8.89844 20.3125 9.07422 20.3613 9.17188 20.459C9.26953 20.5469 9.31836 20.7227 9.31836 20.9863V21.8359C9.31836 22.0996 9.26953 22.2803 9.17188 22.3779C9.07422 22.4658 8.89844 22.5098 8.64453 22.5098H7.78027ZM12.6436 22.5098C12.3896 22.5098 12.209 22.4658 12.1016 22.3779C12.0039 22.2803 11.9551 22.0996 11.9551 21.8359V20.9863C11.9551 20.7227 12.0039 20.5469 12.1016 20.459C12.209 20.3613 12.3896 20.3125 12.6436 20.3125H13.5078C13.7617 20.3125 13.9375 20.3613 14.0352 20.459C14.1426 20.5469 14.1963 20.7227 14.1963 20.9863V21.8359C14.1963 22.0996 14.1426 22.2803 14.0352 22.3779C13.9375 22.4658 13.7617 22.5098 13.5078 22.5098H12.6436ZM17.5068 22.5098C17.2529 22.5098 17.0771 22.4658 16.9795 22.3779C16.8818 22.2803 16.833 22.0996 16.833 21.8359V20.9863C16.833 20.7227 16.8818 20.5469 16.9795 20.459C17.0771 20.3613 17.2529 20.3125 17.5068 20.3125H18.3711C18.6348 20.3125 18.8154 20.3613 18.9131 20.459C19.0107 20.5469 19.0596 20.7227 19.0596 20.9863V21.8359C19.0596 22.0996 19.0107 22.2803 18.9131 22.3779C18.8154 22.4658 18.6348 22.5098 18.3711 22.5098H17.5068Z" fill="#87CEFA"/>
</svg>
