<svg width="30" height="31" viewBox="0 0 30 31" fill="none" xmlns="http://www.w3.org/2000/svg">
<path d="M15 30.3652C12.959 30.3652 11.0352 29.9746 9.22852 29.1934C7.43164 28.4121 5.84473 27.333 4.46777 25.9561C3.09082 24.5791 2.01172 22.9922 1.23047 21.1953C0.449219 19.3887 0.0585938 17.4648 0.0585938 15.4238C0.0585938 13.3828 0.449219 11.4639 1.23047 9.66699C2.01172 7.86035 3.08594 6.26855 4.45312 4.8916C5.83008 3.51465 7.41699 2.43555 9.21387 1.6543C11.0205 0.873047 12.9443 0.482422 14.9854 0.482422C17.0264 0.482422 18.9502 0.873047 20.7568 1.6543C22.5635 2.43555 24.1553 3.51465 25.5322 4.8916C26.9092 6.26855 27.9883 7.86035 28.7695 9.66699C29.5508 11.4639 29.9414 13.3828 29.9414 15.4238C29.9414 17.4648 29.5508 19.3887 28.7695 21.1953C27.9883 22.9922 26.9092 24.5791 25.5322 25.9561C24.1553 27.333 22.5635 28.4121 20.7568 29.1934C18.96 29.9746 17.041 30.3652 15 30.3652ZM15 27.875C16.7285 27.875 18.3447 27.5527 19.8486 26.9082C21.3525 26.2637 22.6758 25.375 23.8184 24.2422C24.9609 23.0996 25.8496 21.7764 26.4844 20.2725C27.1289 18.7686 27.4512 17.1523 27.4512 15.4238C27.4512 13.6953 27.1289 12.0791 26.4844 10.5752C25.8398 9.07129 24.9463 7.74805 23.8037 6.60547C22.6709 5.46289 21.3477 4.57422 19.834 3.93945C18.3301 3.29492 16.7139 2.97266 14.9854 2.97266C13.2568 2.97266 11.6406 3.29492 10.1367 3.93945C8.63281 4.57422 7.31445 5.46289 6.18164 6.60547C5.04883 7.74805 4.16016 9.07129 3.51562 10.5752C2.88086 12.0791 2.56348 13.6953 2.56348 15.4238C2.56348 17.1523 2.88086 18.7686 3.51562 20.2725C4.16016 21.7764 5.04883 23.0996 6.18164 24.2422C7.32422 25.375 8.64746 26.2637 10.1514 26.9082C11.6553 27.5527 13.2715 27.875 15 27.875ZM25.0195 25.0771C24.1309 25.9463 23.0859 26.6885 21.8848 27.3037C20.6934 27.9189 19.4873 28.3877 18.2666 28.71C17.0459 29.042 15.957 29.208 15 29.208C14.0527 29.208 12.9639 29.042 11.7334 28.71C10.5127 28.3877 9.30176 27.9189 8.10059 27.3037C6.89941 26.6885 5.85938 25.9463 4.98047 25.0771L5.02441 24.9014C5.26855 24.1885 5.83984 23.4854 6.73828 22.792C7.63672 22.0986 8.78906 21.5273 10.1953 21.0781C11.6113 20.6289 13.2129 20.4043 15 20.4043C16.7969 20.4043 18.3984 20.6289 19.8047 21.0781C21.2207 21.5273 22.373 22.0986 23.2617 22.792C24.1602 23.4854 24.7314 24.1934 24.9756 24.916L25.0195 25.0771ZM15 17.9141C14.0625 17.9043 13.2129 17.6602 12.4512 17.1816C11.6992 16.6934 11.0986 16.0342 10.6494 15.2041C10.21 14.374 9.98535 13.4365 9.97559 12.3916C9.96582 11.4053 10.1855 10.502 10.6348 9.68164C11.084 8.86133 11.6895 8.20703 12.4512 7.71875C13.2129 7.2207 14.0625 6.97168 15 6.97168C15.9375 6.97168 16.7822 7.2207 17.5342 7.71875C18.2959 8.20703 18.9014 8.86133 19.3506 9.68164C19.7998 10.502 20.0244 11.4053 20.0244 12.3916C20.0244 13.4365 19.7998 14.3789 19.3506 15.2188C18.9111 16.0586 18.3105 16.7227 17.5488 17.2109C16.7871 17.6895 15.9375 17.9238 15 17.9141Z" fill="#87CEFA"/>
</svg>
