<svg width="28" height="35" viewBox="0 0 28 35" fill="none" xmlns="http://www.w3.org/2000/svg">
<path d="M0.757812 29.1719V7.36035C0.757812 6.03223 1.11426 5.02637 1.82715 4.34277C2.5498 3.65918 3.50684 3.2832 4.69824 3.21484C6.45605 3.10742 8.12109 2.96094 9.69336 2.77539C11.2656 2.58008 12.7695 2.35547 14.2051 2.10156C15.6504 1.84766 17.0566 1.56445 18.4238 1.25195C19.8301 0.919922 20.9092 1.08594 21.6611 1.75C22.4131 2.41406 22.7891 3.47363 22.7891 4.92871V26.374C22.7891 27.6533 22.5693 28.6055 22.1299 29.2305C21.6904 29.8652 20.9482 30.3291 19.9033 30.6221C18.0479 31.1299 16.2998 31.5303 14.6592 31.8232C13.0186 32.126 11.417 32.3555 9.85449 32.5117C8.29199 32.668 6.69043 32.79 5.0498 32.8779C3.69238 32.9561 2.6377 32.6729 1.88574 32.0283C1.13379 31.3936 0.757812 30.4414 0.757812 29.1719ZM3.11621 28.7471C3.11621 29.3428 3.29688 29.792 3.6582 30.0947C4.01953 30.4072 4.51758 30.5488 5.15234 30.5195C6.77344 30.4414 8.34082 30.3242 9.85449 30.168C11.3682 30.0215 12.8623 29.8164 14.3369 29.5527C15.8213 29.2891 17.3301 28.9473 18.8633 28.5273C19.4297 28.3809 19.8301 28.1416 20.0645 27.8096C20.3086 27.4678 20.4307 26.96 20.4307 26.2861V5.33887C20.4307 4.68457 20.2402 4.19629 19.8594 3.87402C19.4883 3.55176 18.9658 3.46875 18.292 3.625C16.9541 3.92773 15.5771 4.20605 14.1611 4.45996C12.7549 4.71387 11.29 4.93359 9.7666 5.11914C8.25293 5.30469 6.65137 5.44141 4.96191 5.5293C4.4248 5.55859 3.98047 5.70996 3.62891 5.9834C3.28711 6.24707 3.11621 6.68652 3.11621 7.30176V28.7471ZM6.32422 10.7148C6.08008 10.7344 5.875 10.666 5.70898 10.5098C5.55273 10.3535 5.47461 10.1582 5.47461 9.92383C5.47461 9.69922 5.54297 9.50879 5.67969 9.35254C5.82617 9.18652 6.04102 9.09375 6.32422 9.07422C8.4043 8.94727 10.3086 8.74707 12.0371 8.47363C13.7656 8.19043 15.4453 7.86816 17.0762 7.50684C17.3984 7.43848 17.6426 7.4873 17.8086 7.65332C17.9844 7.80957 18.0723 8 18.0723 8.22461C18.0723 8.42969 18.0137 8.61523 17.8965 8.78125C17.7891 8.9375 17.5693 9.0498 17.2373 9.11816C15.5283 9.49902 13.7998 9.83105 12.0518 10.1143C10.3135 10.3877 8.4043 10.5879 6.32422 10.7148ZM6.32422 15.4316C6.08008 15.4414 5.875 15.3682 5.70898 15.2119C5.55273 15.0557 5.47461 14.8604 5.47461 14.626C5.47461 14.4111 5.54297 14.2256 5.67969 14.0693C5.82617 13.9033 6.04102 13.8105 6.32422 13.791C8.4043 13.6543 10.3086 13.4492 12.0371 13.1758C13.7656 12.9023 15.4453 12.585 17.0762 12.2236C17.3984 12.1553 17.6426 12.2041 17.8086 12.3701C17.9844 12.5264 18.0723 12.7168 18.0723 12.9414C18.0723 13.1465 18.0137 13.3271 17.8965 13.4834C17.7891 13.6396 17.5693 13.7568 17.2373 13.835C15.5283 14.2158 13.7998 14.543 12.0518 14.8164C10.3135 15.0898 8.4043 15.2949 6.32422 15.4316ZM6.32422 20.1484C6.08008 20.1582 5.875 20.085 5.70898 19.9287C5.55273 19.7725 5.47461 19.5771 5.47461 19.3428C5.47461 19.1279 5.54297 18.9424 5.67969 18.7861C5.82617 18.6201 6.04102 18.5273 6.32422 18.5078C8.4043 18.3711 10.3086 18.166 12.0371 17.8926C13.7656 17.6191 15.4453 17.3018 17.0762 16.9404C17.3984 16.8721 17.6426 16.916 17.8086 17.0723C17.9844 17.2285 18.0723 17.4238 18.0723 17.6582C18.0723 17.8633 18.0137 18.0439 17.8965 18.2002C17.7891 18.3564 17.5693 18.4736 17.2373 18.5518C15.5283 18.9229 13.7998 19.25 12.0518 19.5332C10.3135 19.8066 8.4043 20.0117 6.32422 20.1484ZM6.32422 24.8506C6.08008 24.8604 5.875 24.7871 5.70898 24.6309C5.55273 24.4746 5.47461 24.2793 5.47461 24.0449C5.47461 23.8301 5.54297 23.6445 5.67969 23.4883C5.82617 23.3223 6.04102 23.2295 6.32422 23.21C7.50586 23.1416 8.51172 23.0586 9.3418 22.9609C10.1816 22.8535 10.9531 22.7461 11.6562 22.6387C11.9883 22.5801 12.2373 22.6338 12.4033 22.7998C12.5791 22.9658 12.667 23.1611 12.667 23.3857C12.667 23.5713 12.6035 23.7471 12.4766 23.9131C12.3496 24.0791 12.1641 24.1865 11.9199 24.2354C11.1289 24.3623 10.2988 24.4795 9.42969 24.5869C8.56055 24.6943 7.52539 24.7822 6.32422 24.8506ZM12.4619 34.2109C13.6924 34.0254 14.9717 33.7959 16.2998 33.5225C17.6279 33.249 19.0146 32.9219 20.46 32.541C21.4463 32.2578 22.2568 31.8525 22.8916 31.3252C23.5361 30.7979 24.0146 30.124 24.3271 29.3037C24.6396 28.4932 24.7959 27.5166 24.7959 26.374V4.92871C24.7959 4.7041 24.7861 4.48926 24.7666 4.28418C24.7568 4.0791 24.7422 3.87891 24.7227 3.68359C25.5527 3.92773 26.1777 4.40137 26.5977 5.10449C27.0273 5.79785 27.2422 6.71094 27.2422 7.84375V29.626C27.2422 31.1592 26.8662 32.3066 26.1143 33.0684C25.3623 33.8301 24.2295 34.2109 22.7158 34.2109H12.4619Z" fill="#87CEFA"/>
</svg>
